<?xml version="1.0" encoding="UTF-8" standalone="no"?>
<svg
   xmlns:dc="http://purl.org/dc/elements/1.1/"
   xmlns:cc="http://creativecommons.org/ns#"
   xmlns:rdf="http://www.w3.org/1999/02/22-rdf-syntax-ns#"
   xmlns:svg="http://www.w3.org/2000/svg"
   xmlns="http://www.w3.org/2000/svg"
   xmlns:sodipodi="http://sodipodi.sourceforge.net/DTD/sodipodi-0.dtd"
   xmlns:inkscape="http://www.inkscape.org/namespaces/inkscape"
   width="512"
   height="512"
   viewBox="0 0 135.46666 135.46667"
   version="1.1"
   id="svg8"
   inkscape:version="1.0.2 (1.0.2+r75+1)"
   sodipodi:docname="university-of-bristol.svg">
  <defs
     id="defs2" />
  <sodipodi:namedview
     id="base"
     pagecolor="#ffffff"
     bordercolor="#666666"
     borderopacity="1.0"
     inkscape:pageopacity="0.0"
     inkscape:pageshadow="2"
     inkscape:zoom="0.35"
     inkscape:cx="-352.85714"
     inkscape:cy="560"
     inkscape:document-units="mm"
     inkscape:current-layer="layer1"
     inkscape:document-rotation="0"
     showgrid="false"
     units="px"
     inkscape:window-width="1848"
     inkscape:window-height="1016"
     inkscape:window-x="72"
     inkscape:window-y="27"
     inkscape:window-maximized="1" />
  <metadata
     id="metadata5">
    <rdf:RDF>
      <cc:Work
         rdf:about="">
        <dc:format>image/svg+xml</dc:format>
        <dc:type
           rdf:resource="http://purl.org/dc/dcmitype/StillImage" />
        <dc:title></dc:title>
      </cc:Work>
    </rdf:RDF>
  </metadata>
  <g
     inkscape:label="Layer 1"
     inkscape:groupmode="layer"
     id="layer1">
    <g
       id="g4202"
       transform="matrix(0.72951994,0,0,0.72951994,12.143914,-449.67098)">
      <g
         id="g3098" />
      <g
         id="g3102" />
      <g
         id="g3106" />
      <g
         id="g3110" />
      <g
         id="g3114" />
      <g
         id="g3118" />
      <g
         id="g3122">
        <path
           id="path3124"
           class="st0"
           d="m 102.1,700.9 c -0.1,-5.4 -1.9,-16.4 -14.8,-22.7 13.1,4.2 19.4,15.2 20,23.5 13.8,2.7 26,9.2 45.8,2.4 h 0.1 c 0,0 -26.1,0.2 -37,-7.6 5.6,0.2 12.1,-1.1 14.2,-4.2 2.3,-3.4 2.5,-6.9 8.1,-7.1 3.1,-0.1 13.8,0.7 14.9,-14.9 -3.4,5.7 -7.1,8.1 -12.6,6.7 -3.5,-0.9 -10,-3.6 -14.7,1.9 -3.8,4.6 -7.9,6.9 -14.5,6.2 2.6,-3.5 41.7,-54.3 41.7,-54.3 0,0 -50,40.2 -52.8,42.5 -0.5,-7.3 1.7,-10 4.6,-13.2 2.4,-2.6 6.6,-6.2 3.3,-13.7 -2.7,-6.1 -2.3,-9.8 5,-15.6 -5.8,0.4 -14.8,4.4 -13.7,15.1 0.6,6.5 -4,7 -5.6,8 -4.4,2.4 -4.9,9.4 -5.1,14.9 -0.5,-1.8 -6.8,-29 -9.1,-37.8 v 73.3 H 80 c 8.5,-3.6 15.5,-4.1 22.1,-3.4" />
      </g>
      <g
         id="g3126" />
      <g
         id="g3130" />
      <g
         id="g3134" />
      <g
         id="g3138" />
      <g
         id="g3142" />
      <g
         id="g3146" />
      <g
         id="g3150" />
      <g
         id="g3154" />
      <g
         id="g3158" />
      <g
         id="g3162" />
      <g
         id="g3166" />
      <g
         id="g3170" />
      <g
         id="g3174">
        <path
           id="path3176"
           class="st0"
           d="m 52.9,670.4 c -0.6,-3 -0.3,-9.1 2.7,-15 -11,8.3 -11.1,15 -11.1,15 0,0 2.1,-1.6 8.4,0 z m -5.1,-18.1 c 0,0 -13.3,1.9 -17.1,2.3 -2.6,1.6 -5.7,5.9 -5.7,5.9 0,0 -3.1,0.5 -9.4,1.6 -4.3,2.8 -6.9,9.4 -1.6,14.8 -1.7,-0.4 -1.7,-0.4 -4.2,-0.8 -5.3,3.4 -2.8,9.7 8.2,7.5 -3.1,-0.1 -4.7,-1.6 -4.6,-3.6 -0.1,-2.2 4.1,-4.9 9.3,-3.5 -4.9,-9.2 0.5,-12.9 0.5,-12.9 0,0 -2.9,7.6 3.4,13.9 0.6,-0.9 2.4,-3.5 7.7,-3.6 5.3,-0.1 8.6,2.5 8.6,5.5 0.1,2.6 -3.3,5.4 -7.6,5.4 l -0.1,-6.3 c 0,0 -1.4,0.5 -1.8,1.1 v 5.3 c -1.7,0 -5.2,-0.7 -7,-3.6 C 25,681.2 17.1,680 17.1,680 l 0.4,2.1 c 0,0 2.8,0.5 3.3,3.2 0.6,3.3 2.6,6.4 4.2,7.7 3.3,-0.4 8.7,-4.5 18.8,-4.4 -9.2,1.3 -18.6,11.1 -32,7.4 21.4,7.3 23.6,-8.9 50.4,-3.8 -4.2,-2.5 -10.4,-3.3 -10.4,-3.3 0,0 3.3,-3.6 3.5,-9.1 0.4,0 1,-0.1 2.1,-0.2 C 57.8,677.8 58,676 58,676 H 47.3 c -11.9,-12.3 0.5,-23.7 0.5,-23.7 z M 18,652.1 c 3.4,0.2 7.5,-1.9 7.7,-2.1 0,0 -1.4,3.6 1.8,3.4 3.5,-0.2 7.4,-2 8,-2.3 v -4.6 c -0.3,0.2 -3.7,2.6 -7.5,3.5 -1.4,0.3 -0.9,-0.9 -0.8,-1.6 0.1,-0.7 0.2,-1.3 -2.3,-0.2 -10.2,4.2 -10.8,1.3 -10.8,1 -0.4,0.4 -0.2,2.7 3.9,2.9 z m 54.2,-21.3 v 73.3 C 42.7,692.5 30.4,715 -1,704.1 v -73.3 h 14.9 v 7.9 h 8.6 v -7.9 h 8.4 v 7.9 h 8.5 v -7.9 h 8.5 v 7.9 h 9.2 v -7.9 h 15.1" />
      </g>
      <g
         id="g3178">
        <path
           id="path3180"
           class="st0"
           d="m 100.4,730.5 c 0,0 -0.3,-0.2 0.3,-0.7 0.1,-0.1 0.2,0.1 0.6,0.1 0.5,0 0.8,-0.2 1.2,-0.7 0.7,-0.8 -0.7,-1.1 -1.2,-0.7 -0.5,0.4 -0.8,0.8 -1.2,1.2 0,0 -0.7,0.6 0.3,0.8 z m 25.2,37 c -1.2,1 -4.8,2.8 -5.7,3.2 -0.9,0.4 -1.2,0.7 -1.9,2 -0.8,1.6 -1.6,4.5 -1.4,4.7 2.2,-0.4 3.8,-2.2 3.8,-2.2 0,0 0,-0.5 -0.5,-1.2 -0.4,-0.6 0.4,-1.3 0.9,-0.9 0.4,0.3 0.9,0.4 1.2,0.1 0.3,-0.3 7.3,-4.7 7.6,-5.2 -1.4,-1.4 -2.5,-2.8 -2.5,-2.8 0,0 -0.3,1.4 -1.5,2.3 z M 98.4,748.1 c -3,-1.2 -3.6,-2 -4.2,-2.2 -0.5,-0.2 -2.5,0.7 -2.9,1.5 -0.9,2.4 -3,6.2 -3.3,6.8 -0.2,0.3 -0.3,0.6 -0.3,1 0,0.4 0.2,1.9 0.1,2.3 0,0.4 0,0.8 0.2,1.2 0.1,0.4 0.3,1.9 1.1,3.4 1.7,-1.7 2,-4.3 1.9,-3.8 0,0 0.6,-0.9 -0.8,-1.4 -0.4,-0.1 -0.3,-1.1 0.1,-1.3 0.5,-0.2 0.8,-0.3 1,-1.2 0.2,-0.9 1.2,-4.2 1.5,-4.9 0,-0.1 0.1,-0.3 0.3,-0.3 0.3,-0.1 0.6,-0.2 0.8,-0.3 0.1,0 0.4,0.1 0.5,0.2 0.5,0.5 2.9,2.5 2.9,2.5 0,0 1.1,-0.1 1.8,-0.4 -0.4,-0.6 -0.6,-2.3 -0.7,-3.1 z m -3,-14 c 0,0 -1,1.3 0.1,1.6 0,0.4 0.2,1.1 0.3,1.5 0.2,0.5 0.5,0.3 0.9,-0.1 0.4,-0.4 1,-1.2 1.4,-1.7 0.4,-0.4 1.8,-0.3 1.2,0.6 -0.4,0.6 -0.7,0.7 -1.1,0.8 -0.4,0.1 -0.5,-0.2 -0.9,0.3 -0.4,0.6 -0.9,1 -0.1,1 0.4,0 1.2,0.4 1.7,0.3 0.5,-0.1 0.5,-0.4 0.6,-0.8 0.1,-0.4 0,-0.7 0.5,-1 0.6,-0.4 1.6,-1.2 1.9,-1.5 0.3,-0.3 0.7,-0.3 1.2,-0.3 0.4,0 2.5,0.2 3.7,-1.6 0.9,-1.3 1,-3.1 0.6,-4.6 0.6,0.6 1.4,2.4 1,4.1 -0.7,3.1 -2.2,3.2 -3.8,3.6 -0.6,0.9 -2.3,3.2 -3.1,7.4 -0.4,0.2 -3.5,3.2 -0.9,8.1 -0.7,0.2 -2.6,1.1 -3.8,1.3 -0.8,0.2 -1.4,0.2 -1.7,0.6 -0.4,0.4 -1.2,1.8 -0.7,2.5 0.3,0.5 2.2,4.8 2.4,6.1 0.2,1.3 0.6,1.6 1.1,2.1 0.5,0.5 0.9,0.5 1.6,1 0.8,0.6 1.4,1.6 2.1,2.1 0.7,0.6 1.6,0.9 2.2,0.8 -0.1,-2.2 -0.6,-4.3 -1.3,-5 -0.7,-0.7 -1.6,0.3 -1.8,0.4 -0.2,0.1 -0.5,-0.2 -0.6,-0.7 -0.1,-0.6 0.4,-1.1 -0.1,-1.9 -1,-1.5 -1.9,-3.1 -2,-3.4 -0.7,-1.4 0.5,-1.7 0.8,-1.6 0.7,0.2 4.8,0.7 5.5,0.8 0.6,0.1 1,0.2 1.3,-0.2 0.9,-1 1.4,-1.7 1.9,-2.7 0.9,0.7 0.3,2 0,3.6 0.3,0.2 6.3,3.3 14.5,1.1 3.4,-0.9 3.1,-0.2 3.4,0.4 2,3.9 3.4,5.4 5.8,7.3 0.7,0.6 1.2,1.5 1.5,2 0.3,0.5 0.4,1.5 0.1,2.1 -0.3,0.8 -2.2,4.1 -2.5,4.5 -0.6,0.9 -1.4,1.6 -2.1,2 -2.1,1.1 -2.6,2.1 -2.8,2.9 h 5.4 c 0,0 0.1,-0.3 0.1,-0.9 -0.1,-0.9 0.8,-1.1 1,-1.2 0.3,-0.1 0.7,0.2 1.2,-0.8 0.8,-1.9 3.9,-7.2 4.2,-7.7 0.3,-0.5 1.2,-1.8 0.3,-2.3 -1.8,-1.1 -2.9,-2.8 -3.2,-4.8 -0.1,-0.8 -0.1,-2.1 1.7,-4.2 3.8,-4.7 1,-14.3 -7.4,-14.1 -4.7,0.1 -7.4,-0.3 -10.5,-0.9 -1.1,-0.2 -1.3,-0.8 -1.1,-1.5 0.2,-0.7 0.5,-2.1 0.5,-2.7 -0.8,-0.7 -2.1,-1.2 -2.7,-1.4 -0.6,-0.2 -1,-0.7 -0.3,-0.8 0.7,0 3.1,0.2 3.1,0.2 0,0 0.1,-1.3 -0.3,-3.3 -1.1,-0.5 -2.4,-0.9 -3.8,-1 -0.4,0 -0.7,-0.5 0.2,-0.6 1.2,-0.2 2.4,0 3.3,0 0.1,-0.1 -0.4,-2.6 -1.3,-3.6 -0.6,-0.2 -0.9,-0.3 -3.1,-0.5 -0.7,-0.1 -0.8,-0.3 -0.3,-0.5 0.6,-0.2 1.5,-0.4 2.7,-0.3 -0.5,-0.6 -3.5,-6.3 -9.9,-4.6 0.7,0.9 1.1,1.3 1.3,1.9 0.2,0.5 -0.4,0.7 -0.9,0.2 -2,-2.1 -3.1,-2.1 -4.4,-2.3 0.9,0.8 1.2,1.6 1.5,2.5 -1.5,1 -3.5,3.5 -3.8,4 -0.6,0.9 0.2,1.4 0.2,1.4 z m 41.3,-14.2 c -6.5,2.3 -5.6,9.3 -3.8,12 2.3,3.5 4.2,3.6 5.7,7.8 1.1,3.2 -0.9,4.9 -2.9,5.7 3.5,2.1 7,-0.1 8.3,-2.2 2.3,-3.1 -0.3,-7.2 2.2,-9.3 0.7,-0.6 1.8,-1 3.3,-1 -1.5,-2.2 -5.1,-1.9 -6.5,0.1 -1,-2.3 -3.8,-4.4 -2.8,-8 0.7,-2.4 4.4,-3.3 5.8,-1.3 0.8,1.1 0.9,3.2 -1.4,4.2 1.4,-0.1 4.1,-2.6 2.3,-5.9 -1.3,-2.3 -3.5,-2.5 -5.2,-2.5 -3.2,0 -8.6,3.7 -5.2,11.6 -2,-1.7 -5.2,-7.8 0.2,-11.2 z M 153,711.6 V 785 c -40.6,9.9 -41.8,-11.7 -73.2,0 v -73.4 c 28.9,-12.1 40.2,10.9 73.2,0" />
      </g>
      <g
         id="g3182">
        <path
           id="path3184"
           class="st0"
           d="m 25.6,753.5 c 0,0 -1.3,0.8 0.3,4.4 1.6,3.5 3.6,6.8 0.1,10.7 2,0 6.3,-2.6 1.7,-10.3 -1,-1.8 -2.1,-3.1 -2.1,-4.8 z m -4.3,1.7 c 1.1,-0.1 1.2,-1.4 1,-2.1 -0.2,-0.8 -1.6,-0.9 -1.9,0.1 -0.3,1 0,2 0,2 0.3,1 1.4,1.3 1.5,1.2 -0.7,-0.5 -0.5,-0.9 -0.6,-1.2 z m 1,4.7 c -0.3,3.1 -2,3.6 -2,3.6 -3.1,-1.4 -4.8,2.5 -2.2,3.6 3.3,1.5 5.3,-2.8 5.5,-3.6 0.6,-2.2 0.6,-3.8 0.4,-7.5 -0.2,-3.1 0.6,-3.6 1.1,-3.7 0.5,-0.1 1.6,-0.1 2.6,3.1 1.1,3.2 3.4,3.7 3.4,3.7 0,0 -3.3,-5.4 1.3,-10.4 2.2,-2.3 6.5,-3.6 5.7,-6.9 0,0 -0.7,1.2 -2,1.5 -1.3,0.3 -3.9,0.7 -3.9,0.7 0,0 6.1,-2.9 7.2,-6.2 0,0 1.9,3.2 -0.6,7.9 0,0 2.4,-0.9 5.1,0.3 6.7,3 6,12.5 -2.5,14.8 -12,3.2 -7.7,12.5 -0.8,13.1 -0.7,-0.5 -0.9,-3.3 0.3,-4.9 0.6,-0.5 1.7,-1.6 2.4,0.7 1.2,4 4.7,4.4 6.4,3.9 -0.4,-0.4 -1.2,-1.6 -1.1,-2.3 0.2,-1.4 2,0.1 2.6,0.2 4.7,1.3 7.3,0.2 7.5,-0.5 -1.1,-0.2 -0.9,-0.1 -1.5,-0.3 -0.6,-0.2 -1.8,-1 0.4,-1.5 4.2,-1 6.5,-5.3 3.7,-8.6 -2.6,-3.2 -5.9,-2.7 -7,-2.3 4.5,1 4.8,4.6 2.5,6.5 -2,1.5 -7,2.1 -8.7,-1.2 -1.1,0.8 -1.5,2 -1.3,3.6 -0.5,-0.2 -2.4,-2.9 0.5,-5.1 13.1,-8.4 11,-22.6 -0.1,-28.5 l -0.1,-0.1 C 37,727.7 28.2,733 28.2,733 c 6.2,-6.2 17,-2.5 18.5,-1.8 0,0 -1.2,-1.1 -1.9,-2.1 -0.9,-1.3 -0.8,-2.5 -0.8,-2.5 -4.3,2.4 -5.4,-1.3 -5.4,-1.3 0,0 -3.7,3.3 -6.1,0.6 -2.1,-2.4 1.3,-5.6 1.3,-5.6 -21.6,7.1 -17.5,19.3 -17.5,19.3 0,0 -3.1,2.9 -3.8,9.8 -0.8,7.9 3.1,13.5 8,11.9 1,-0.3 1.6,-0.8 1.8,-1.4 z M 72.2,711.6 V 785 C 40.8,773.3 39.6,794.9 -1,785 v -73.4 c 33,10.9 44.3,-12.1 73.2,0" />
      </g>
    </g>
  </g>
  <style
     id="style103">.st0{fill:#bf2f38}</style>
  <style
     id="style390">.st0{fill:#bf2f38}</style>
</svg>
