<svg xmlns="http://www.w3.org/2000/svg" height="800" width="1200" version="1.0" viewBox="-32.14149 -18.078925 278.55958 108.47355"><defs><clipPath id="a"><path d="M0 0h1247.244v793.701H0z"/></clipPath><clipPath id="b"><path d="M1015.82 99.172h180.74V39.0161h-180.74z"/></clipPath><clipPath id="c"><path d="M1016.82 40.016h178.74v58.156h-178.74z"/></clipPath></defs><g clip-path="url(#a)" transform="matrix(1.25 0 0 -1.25 -1280.0458 121.7167)"><g clip-path="url(#b)" transform="translate(.7986 -.7986)"><g clip-path="url(#c)"><path d="M1072.3552 44.9801c.039-.956.916-1.259 1.846-1.259.701 0 1.657.149 1.657.972 0 .828-1.114.969-2.244 1.209-1.114.238-2.242.59-2.242 1.839 0 1.31 1.37 1.854 2.561 1.854 1.512 0 2.718-.454 2.811-2.043h-1.127c-.076.829-.849 1.096-1.593 1.096-.674 0-1.459-.173-1.459-.832 0-.768 1.198-.895 2.245-1.133 1.129-.24 2.243-.593 2.243-1.859 0-1.544-1.528-2.053-2.921-2.053-1.537 0-2.84.596-2.906 2.209h1.129m10.839 1.8272c-.051 1.021-.861 1.841-1.976 1.841-1.18 0-1.886-.843-1.963-1.841zm1.087-1.816c-.302-1.434-1.392-2.22-2.929-2.22-2.19 0-3.227 1.44-3.293 3.431 0 1.955 1.355 3.393 3.226 3.393 2.426 0 3.172-2.157 3.104-3.733h-5.134c-.043-1.137.635-2.141 2.135-2.141.931 0 1.579.428 1.781 1.27h1.11m6.0649 2.3574c-.17.822-.77 1.299-1.697 1.299-1.635 0-2.136-1.222-2.136-2.544 0-1.199.57-2.382 2-2.382 1.091 0 1.74.603 1.886 1.589h1.157c-.253-1.589-1.303-2.54-3.025-2.54-2.098 0-3.213 1.389-3.213 3.333 0 1.953 1.061 3.492 3.239 3.492 1.548 0 2.796-.692 2.956-2.247h-1.167m8.2782-4.4206h-1.063v1.033h-.023c-.482-.808-1.247-1.19-2.229-1.19-1.803 0-2.364.985-2.364 2.389v4.283h1.13v-4.41c0-.797.53-1.312 1.391-1.312 1.367 0 2.029.866 2.029 2.041v3.681h1.129v-6.515m1.7893 6.5145h1.067v-1.374h.02c.544 1.048 1.302 1.562 2.524 1.527v-1.134c-1.818 0-2.481-.986-2.481-2.634v-2.9h-1.13v6.515m5.7894 1.1734h-1.13v1.312h1.13zm-1.131-1.173h1.13v-6.515h-1.13zm4.5766-.0004h1.364v-.949h-1.364v-4.041c0-.492.146-.582.853-.582h.511v-.943h-.858c-1.169 0-1.632.225-1.632 1.422v4.144h-1.165v.949h1.165v1.954h1.126v-1.954m5.4384-7.3902c-.514-1.271-.98-1.733-1.987-1.733-.265 0-.532.026-.781.111v.98c.21-.061.435-.147.663-.147.46 0 .714.212.926.593l.463 1.111-2.719 6.475h1.275l2.003-5.33h.027l1.925 5.33h1.192l-2.987-7.39m9.204 7.3902h1.367v-.949h-1.367v-4.041c0-.492.145-.582.853-.582h.514v-.943h-.861c-1.171 0-1.636.225-1.636 1.422v4.144h-1.166v.949h1.166v1.954h1.13v-1.954m5.7051-5.7213c1.18 0 2.138.88 2.138 2.455 0 1.591-.958 2.472-2.138 2.472-1.178 0-2.136-.881-2.136-2.472 0-1.575.958-2.455 2.136-2.455m0 5.874c2.178 0 3.331-1.501 3.331-3.419 0-1.9-1.153-3.405-3.331-3.405-2.174 0-3.328 1.505-3.328 3.405 0 1.918 1.154 3.419 3.328 3.419m11.5793-.9472c-1.512 0-2.099-1.236-2.099-2.458 0-1.286.613-2.469 2.167-2.469 1.537 0 2.056 1.245 2.056 2.52 0 1.224-.665 2.407-2.124 2.407m-3.185 3.28h1.13v-3.368h.025c.369.716 1.246 1.035 2.191 1.035 2.107 0 3.155-1.591 3.155-3.429 0-1.841-1.034-3.395-3.128-3.395-.707 0-1.716.256-2.218 1.023h-.025v-.866h-1.13v9m12.7246-5.1208c-.054 1.021-.864 1.841-1.978 1.841-1.178 0-1.881-.843-1.961-1.841zm1.087-1.816c-.305-1.434-1.396-2.22-2.936-2.22-2.185 0-3.221 1.44-3.289 3.431 0 1.955 1.357 3.393 3.224 3.393 2.428 0 3.174-2.157 3.109-3.733h-5.134c-.042-1.137.634-2.141 2.135-2.141.926 0 1.578.428 1.777 1.27h1.114m5.5221 3.5025h-1.155v.949h1.155v.969c0 1.058.663 1.613 1.895 1.613.212 0 .518-.036.731-.097v-.935c-.203.06-.437.086-.64.086-.542 0-.857-.16-.857-.728v-.908h1.324v-.949h-1.324v-5.566h-1.129v5.566m3.5543.9488h1.059v-1.374h.028c.546 1.048 1.299 1.562 2.518 1.527v-1.134c-1.814 0-2.478-.986-2.478-2.634v-2.9h-1.127v6.515m9.1121-2.6353c-.053 1.021-.861 1.841-1.975 1.841-1.178 0-1.884-.843-1.964-1.841zm1.089-1.816c-.302-1.434-1.393-2.22-2.935-2.22-2.185 0-3.223 1.44-3.286 3.431 0 1.955 1.354 3.393 3.222 3.393 2.431 0 3.175-2.157 3.108-3.733h-5.137c-.04-1.137.636-2.141 2.136-2.141.927 0 1.581.428 1.778 1.27h1.114m6.1709 1.816c-.055 1.021-.865 1.841-1.975 1.841-1.186 0-1.889-.843-1.964-1.841zm1.085-1.816c-.301-1.434-1.389-2.22-2.933-2.22-2.187 0-3.221 1.44-3.289 3.431 0 1.955 1.352 3.393 3.228 3.393 2.426 0 3.172-2.157 3.104-3.733h-5.134c-.043-1.137.636-2.141 2.136-2.141.926 0 1.577.428 1.778 1.27h1.11" fill="#ef7c00"/><path d="M1154.8236 57.8819v4.258h-4.035c-1.93-.03-2.08 1.535-2.08 3.649v13.695h5.506v4.215h-5.506v9.724h-5.655v-29.071c.021-4.336 1.188-6.462 6.942-6.465v-.005h4.828"/><path d="M1194.6593 80.514c-4.852 4.346-6.833 5.123-8.823 5.248-1.989-.125-3.974-.902-8.828-5.248 4.341 4.858 5.123 6.849 5.241 8.833-.118 1.986-.9 3.975-5.241 8.825 4.854-4.331 6.839-5.12 8.828-5.238 1.99.118 3.971.907 8.823 5.238-4.337-4.85-5.12-6.839-5.245-8.825.125-1.984.908-3.975 5.245-8.833" fill="#ef7c00"/><path d="M1174.639 63.594h-14.559V78.15h14.559zm-7.292 20.803c-8.229 0-12.943-5.655-12.943-13.5 0-7.887 4.714-13.535 12.943-13.535 8.244 0 12.956 5.648 12.956 13.535 0 7.845-4.712 13.5-12.956 13.5m-41.762-17.7146c0-3.573-3.862-4.862-6.347-4.862-1.984 0-5.207.745-5.207 3.274 0 2.979 2.186 3.873 4.614 4.268 2.48.444 5.211.399 6.94 1.535zm-54.023-.593h-5.061c-.992-2.826-2.975-4.269-6.245-4.269-4.722 0-6.9 3.567-6.9 7.592h18.206zm-11.457 13.838c3.811 0 6.25-3.222 6.445-6.797h-13.194c.147 3.822 2.827 6.797 6.749 6.797m-24.465-17.414c-4.715 0-6.745 4.269-6.745 8.479 0 4.271 1.738 8.935 6.745 8.935 4.916 0 6.895-4.068 6.895-8.482 0-4.365-1.883-8.932-6.895-8.932m98.66 30.909v-31.564h-3.095v15.852c-.473 4.835-5.463 6.687-10.23 6.687-5.651 0-11.257-1.936-11.652-8.538h5.652c.249 2.78 2.484 4.068 5.653 4.068 2.284 0 5.308-.544 5.308-3.469 0-3.328-3.62-2.877-7.684-3.627-3.982-.451-8.193-1.26-9.476-5.231v8.164c0 6.249-3.177 8.633-8.586 8.633-3.723 0-6.155-1.637-8.036-4.269-1.143 2.926-4.071 4.269-7.196 4.269-4.069 0-6.203-1.738-7.883-4.269h-.154v3.57h-5.359v-7.746c-1.621 4.823-5.763 8.445-11.457 8.445-6.204 0-10.505-4.122-11.911-9.565v8.866h-5.659v-3.516h-.094c-1.439 2.872-4.365 4.215-7.593 4.215-7.291 0-11.61-5.956-11.61-12.853 0-7.342 3.375-13.5 11.506-13.5 3.179 0 6.105 1.692 7.697 4.521h.094v-3.926c0-4.214-2.033-6.545-6.595-6.545-2.879 0-5.452.549-6.154 3.773h-5.652c.492-6.001 6.3-7.992 11.46-7.992 8.086 0 12.6 3.817 12.6 11.512v7.185c1.375-5.559 5.572-9.21 12.062-9.21 5.222 0 9.72 2.718 11.306 7.631v-6.949h5.656v15.238c0 4.265 2.683 6.645 5.607 6.645 3.423 0 4.515-1.886 4.515-5.405v-16.478h5.655v15.04c0 4.315 1.641 6.843 5.456 6.843 4.418 0 4.667-2.827 4.667-6.889v-14.994h5.658v4.309c1.142-3.345 4.611-4.991 8.378-4.991 2.841 0 6.194.84 8.442 2.75v-.019l.011.019c0-1.126.875-2.033 1.981-2.086h12.36v35.396h-5.648"/></g></g></g></svg>